<?xml version="1.0" encoding="UTF-8" standalone="no"?>
<svg
   viewBox="0 0 51.80872 1.7099527"
   version="1.1"
   id="svg2468"
   xmlns="http://www.w3.org/2000/svg"
   xmlns:svg="http://www.w3.org/2000/svg">
  <defs
     id="defs2465" />
  <g
     id="layer1"
     transform="translate(-58.637719,-102.06579)">
    <path
       fill-rule="nonzero"
       fill="#000000"
       fill-opacity="1"
       d="m 79.384082,102.41373 c -0.348643,0 -0.631141,0.2384 -0.63803,0.53469 h -0.24529 c -0.395499,0 -1.163066,-0.53469 -1.163066,-0.53469 -0.782726,0.41342 -4.138249,0.55535 -4.20853,0.55811 H 58.742448 c -0.05788,0 -0.104729,0.0469 -0.104729,0.10473 0,0.0579 0.04685,0.10336 0.104729,0.10336 h 14.361915 c 2.837381,0.0482 4.372514,0.37344 4.372514,0.37344 0.304546,-0.38585 0.963249,-0.47129 1.280199,-0.48507 0.05926,0.25081 0.31695,0.43822 0.627006,0.43822 0.354157,0 0.63941,-0.24529 0.63941,-0.5457 0,-0.30317 -0.285253,-0.54709 -0.63941,-0.54709 z m -2.069814,1.00046 c 0,0 -1.441425,-0.32522 -2.651344,-0.35002 0,0 1.860353,-0.0923 2.581067,-0.44097 0,0 0.512628,0.32522 0.72209,0.3955 0,0 -0.512628,0.23151 -0.651813,0.39549 z m 2.033986,-0.0703 c -0.191548,0 -0.347267,-0.16123 -0.347267,-0.36105 0,-0.19843 0.155719,-0.35966 0.347267,-0.35966 0.192924,0 0.348643,0.16123 0.348643,0.35966 0,0.19982 -0.155719,0.36105 -0.348643,0.36105 z m 0,0"
       id="path1089"
       style="stroke-width:0.352778" />
    <path
       fill-rule="nonzero"
       fill="#000000"
       fill-opacity="1"
       d="M 110.34171,102.97184 H 95.953613 c -0.0689,-0.003 -3.424424,-0.14469 -4.20715,-0.55811 0,0 -0.767567,0.53469 -1.163063,0.53469 h -0.245293 c -0.0069,-0.29629 -0.290767,-0.53469 -0.63941,-0.53469 -0.352777,0 -0.639409,0.24392 -0.639409,0.54709 0,0.30041 0.286632,0.5457 0.639409,0.5457 0.31144,0 0.56913,-0.18741 0.628386,-0.43822 0.316949,0.0138 0.975652,0.0992 1.278819,0.48507 0,0 1.535137,-0.32521 4.372515,-0.37207 l 14.363293,-10e-4 c 0.0579,0 0.10473,-0.0455 0.10473,-0.10335 0,-0.0579 -0.0468,-0.10474 -0.10473,-0.10474 z m -20.607181,0.37207 c -0.191548,0 -0.348647,-0.16123 -0.348647,-0.36105 0,-0.19843 0.157099,-0.35966 0.348647,-0.35966 0.192923,0 0.348643,0.16123 0.348643,0.35966 0,0.19982 -0.15572,0.36105 -0.348643,0.36105 z m 2.035362,0.0703 c -0.140561,-0.16398 -0.651814,-0.39549 -0.651814,-0.39549 0.209462,-0.0703 0.720715,-0.3955 0.720715,-0.3955 0.720714,0.34864 2.582443,0.44097 2.582443,0.44097 -1.209919,0.0248 -2.651344,0.35002 -2.651344,0.35002 z m 0,0"
       id="path1091"
       style="stroke-width:0.352778" />
    <path
       fill-rule="nonzero"
       fill="#000000"
       fill-opacity="1"
       d="m 82.062988,102.85746 c 0.467156,0.34451 1.393197,0.11438 2.13596,-0.21084 0.744139,-0.32659 1.441429,-0.5581 1.441429,-0.5581 -0.418924,-0.14056 -1.382173,0.40514 -2.371605,0.69729 -0.86403,0.25631 -1.168576,0.0951 -1.205784,0.0717 z m 0,0"
       id="path1093"
       style="stroke-width:0.352778" />
    <path
       fill-rule="nonzero"
       fill="#000000"
       fill-opacity="1"
       d="m 87.10661,103.02421 c -0.122647,-0.12127 -0.519522,-0.25081 -1.327052,0.0179 -0.627009,0.20808 -1.533757,0.57464 -1.533757,0.57464 0.679372,0.0703 0.854385,-0.226 1.744595,-0.50574 0.802019,-0.25218 1.116214,-0.0868 1.116214,-0.0868 z m 0,0"
       id="path1095"
       style="stroke-width:0.352778" />
    <path
       fill-rule="nonzero"
       fill="#000000"
       fill-opacity="1"
       d="m 87.548958,102.08301 c -0.919152,-0.0675 -1.697743,0.26458 -2.451531,0.58428 l -0.325215,0.13781 c -0.784105,0.33486 -1.858973,0.79099 -2.842891,0.76068 -0.901238,-0.0289 -1.416625,-0.26597 -1.416625,-0.6463 0,-0.33349 0.319705,-0.52779 0.949469,-0.57603 0.633896,-0.0496 1.182356,0.3266 1.187867,0.33073 0.04823,0.0317 0.113001,0.022 0.146074,-0.0276 0.03306,-0.0469 0.02205,-0.11162 -0.02618,-0.14469 -0.0248,-0.0166 -0.614606,-0.42168 -1.324296,-0.36794 -0.943955,0.073 -1.142393,0.46715 -1.142393,0.78548 0,0.30042 0.210841,0.80891 1.619194,0.85439 1.030774,0.0331 2.079462,-0.36656 2.881478,-0.70969 l 0.325219,-0.13781 c 0.730359,-0.31006 1.536513,-0.69729 2.404674,-0.63527 1.028019,0.0744 1.158931,0.40376 1.158931,0.68075 0,0.0799 -0.0303,0.14883 -0.0937,0.20946 -0.168124,0.16536 -0.552595,0.25769 -1.001836,0.24391 -0.545702,-0.0165 -0.952225,-0.17363 -0.957736,-0.17639 -0.05099,-0.0248 -0.114377,-0.003 -0.139181,0.0496 -0.0248,0.051 -0.0041,0.11438 0.04823,0.13919 0.02342,0.011 0.451996,0.17776 1.043174,0.19705 0.511253,0.0152 0.942577,-0.0978 1.153418,-0.30317 0.104729,-0.10059 0.157095,-0.22186 0.157095,-0.35966 0,-0.54019 -0.429948,-0.82269 -1.353234,-0.88884 z m 0,0"
       id="path1097"
       style="stroke-width:0.352778" />
  </g>
</svg>
