<?xml version="1.0" encoding="UTF-8"?>
<svg id="svg8" width="319.26" height="310.83" version="1.1" viewBox="0 0 319.26 310.83" xml:space="preserve" xmlns="http://www.w3.org/2000/svg"><g id="g250" transform="translate(411.56 -173.9)"><path id="path363" d="m-207.87 372.57-27.679-54.75-5.7756 0.65026c-23.297 2.623-44.945-9.0222-55.519-29.865-7.2523-14.295-8.327-27.711-3.4069-42.528 5.0304-15.15 13.636-25.227 27.552-32.264 14.218-7.1897 26.999-7.9969 42.949-2.7126 15.06 4.9893 25.864 14.736 32.491 29.31 5.6154 12.35 6.6307 27.869 2.6222 40.079-1.9797 6.03-7.7206 15.604-12.37 20.629l-3.9503 4.2698 21.904 43.25 13.222-6.7144c7.2721-3.6929 13.667-6.5685 14.21-6.39 1.5256 0.50087 11.522 20.993 11.007 22.563-0.25082 0.764-6.2703 4.3417-13.377 7.9505l-12.921 6.5614 10.13 20.179 13.287-6.693c7.3078-3.6811 13.717-6.5518 14.242-6.3793 1.5178 0.49829 11.481 21.01 10.966 22.578-0.60736 1.85-48.633 26.102-50.485 25.494-0.78119-0.25647-13.876-25.104-29.1-55.217zm-37.262-82.429c10.982-1.1841 19.475-8.1097 22.983-18.741 8.8886-26.939-24.678-47.289-44.684-27.09-10.803 10.906-10.718 27.448 0.19703 38.235 5.307 5.245 14.195 8.3848 21.505 7.5966z" fill="#36729e"/><path id="path363-3" d="m-275.87 378.83-4.4083-61.191-5.5792-1.6288c-22.505-6.5701-37.983-25.667-39.695-48.976-1.1742-15.987 3.0111-28.778 13.268-40.549 10.487-12.035 22.314-18.011 37.868-19.133 15.891-1.1464 27.994 3.0409 40.669 14.071 11.968 10.414 18.175 23.576 18.664 39.578 0.41481 13.56-4.637 28.269-13.047 37.986-4.1532 4.7991-13.144 11.417-19.372 14.258l-5.292 2.4147 1.759 24.176 1.759 24.176 14.789-1.0922c8.1339-0.60073 15.143-0.786 15.575-0.41171 1.2142 1.0508 2.5292 23.813 1.4479 25.063-0.52622 0.60803-7.4601 1.5858-15.409 2.1729l-14.452 1.0673c0.51949 7.5084 1.039 15.017 1.5584 22.525l14.84-1.0475c8.1623-0.5761 15.183-0.75129 15.601-0.3893 1.2079 1.0454 2.484 23.813 1.4046 25.061-1.2742 1.4723-54.938 5.314-56.412 4.0384-0.62172-0.53805-3.1141-28.514-5.5387-62.169zm-2.5685-90.424c10.588 3.1453 21.096 0.0334 28.435-8.4211 18.595-21.422-4.5187-53.149-30.77-42.235-14.175 5.893-20.479 21.187-14.572 35.35 2.872 6.8866 9.8602 13.213 16.908 15.306z" fill="#9a984f"/><path id="path363-3-6" d="m-347.03 362.66 24.376-56.299-4.1944-4.0233c-16.919-16.229-21.817-40.318-12.56-61.778 6.3486-14.719 15.973-24.127 30.509-29.824 14.862-5.8246 28.113-5.6566 42.424 0.53802 14.621 6.3291 23.418 15.637 29.559 31.277 5.7987 14.767 5.2186 29.307-1.7443 43.723-5.9004 12.216-17.179 22.924-29.128 27.654-5.9012 2.3357-16.933 4.0478-23.769 3.6889l-5.8088-0.30496-19.231 44.503 13.619 5.8676c7.4905 3.2272 13.791 6.3028 14.002 6.8346 0.59095 1.493-8.7649 22.286-10.301 22.894-0.74769 0.29593-7.3483-2.0422-14.668-5.1958l-13.309-5.7339c-3.0101 6.8982-6.0202 13.796-9.0304 20.695l13.644 5.9312c7.5042 3.2621 13.811 6.352 14.014 6.8663 0.5879 1.4853-8.805 22.265-10.339 22.872-1.8105 0.71658-51.173-20.683-51.89-22.496-0.30259-0.7645 10.419-26.724 23.826-57.689zm39.521-81.371c7.9352 7.6835 18.691 9.7812 29.107 5.6765 26.392-10.401 20.561-49.219-7.7621-51.675-15.293-1.3266-27.953 9.3207-29.263 24.61-0.63659 7.4343 2.6358 16.274 7.9175 21.389z" fill="#ffbf00"/></g></svg>
